<?xml version="1.0" encoding="UTF-8"?>
<svg id="Ebene_1" data-name="Ebene 1" xmlns="http://www.w3.org/2000/svg" viewBox="0 0 623.16 144.04">
  <defs>
    <style>
      .cls-1 {
        fill: #263f50;
      }

      .cls-1, .cls-2 {
        stroke-width: 0px;
      }

      .cls-2 {
        fill: #69888d;
      }
    </style>
  </defs>
  <path class="cls-1" d="m0,73.5s265.22,4.85,308.15,4.85,315.01-4.85,315.01-4.85c0,0-66.07,9.52-140.2,15.23-77.28,5.96-139.85,8.31-174.81,8.31s-203.55-11.08-203.55-11.08c0,0-9,16.27-19.73,25.62-10.73,9.35-30.81,17.31-30.81,17.31,0,0,17.04-15,20.77-23.62,4.31-9.94,3.12-20.02,3.12-20.02,0,0-25.25-2.53-40.48-4.95C11.5,76.17,0,73.5,0,73.5"/>
  <path class="cls-2" d="m511.72,41.19c-3.42,5.08-5.4,10.79-5.4,15.36,0,4.98,2.28,8.61,7.99,8.61,6.12,0,13.7-8.3,18.36-14.11,2.18-2.7,3.53-4.77,3.53-5.91,0-2.18-.83-3.22-2.18-3.22-.73,0-1.56.42-3.94,3.63-4.77,6.43-10.48,11.1-14.22,11.1-.93,0-1.87-.31-1.87-1.56,0-8.82,11.62-22.41,11.62-23.55,0-.93-1.24-4.77-4.15-4.77-3.11,0-20.96,16.39-25.73,21.27,10.17-18.16,19.3-31.23,22.93-36.42,2.91-4.15,3.73-5.6,3.73-6.74,0-.83-.62-4.88-3.01-4.88-1.04,0-3.42.31-4.25,1.04-.83.52-5.81,9.03-10.48,17.33-8.92,15.87-16.81,25.83-16.81,27.29,0,1.14.73.93,1.24.93-4.88,8.3-8.2,13.8-8.2,14.42,0,1.76,2.28,4.88,4.67,4.88,1.97,0,3.22-1.45,6.54-5.19,5.39-5.91,15.04-16.19,19.61-19.51m-31.85-14.73c-2.39,2.28-6.23,6.64-6.23,11,0,1.35.93,3.11,3.53,3.11,1.45,0,2.49-1.45,3.32-2.49,4.36-5.5,6.95-8.3,6.95-11.72,0-.93-.1-2.39-1.45-3.32-.73-3.22-5.81-4.36-8.4-4.36-6.33,0-25.63,16.29-25.63,30.61,0,7.06,3.94,15.87,15.25,15.87,8.2,0,15.36-5.29,20.54-11.41,2.91-3.42,5.81-7.16,5.81-8.72s-.62-3.11-2.08-3.11c-1.14,0-1.87,1.14-6.43,6.43-1.87,2.18-9.13,9.75-17.53,9.75-5.4,0-7.78-2.9-7.78-6.95,0-7.99,8.61-19.92,20.13-24.69m-42.33,8.4c-3.63,5.81-16.29,21.06-20.85,21.06-1.66,0-2.39-1.14-2.39-2.59,0-7.68,15.15-22,20.85-22,1.76,0,2.28,1.25,2.39,3.53m-7.26,19.4c-.1.52-.21,1.25-.21,1.76,0,4.67,3.01,9.13,7.37,9.13,6.33,0,12.24-6.74,15.15-10.17,3.42-3.84,6.95-8.3,6.95-9.86,0-1.97-.73-3.22-2.18-3.22-1.04,0-2.07,1.45-4.88,4.77-4.15,4.98-9.23,9.96-12.87,9.96-1.66,0-2.28-1.45-2.28-2.9,0-3.74,2.28-7.47,4.67-10.69,3.32-4.46,5.5-5.91,5.5-6.64,0-.83-1.04-1.66-1.76-2.07.1-.73.1-1.45.1-2.07,0-6.02-2.59-10.69-7.37-10.69-11.41,0-32.16,20.54-32.16,32.37,0,4.46,5.29,11.21,8.82,11.21,6.12,0,12.35-7.26,15.15-10.89m-48.66-4.77c1.24-9.86,11.83-19.51,14.84-19.51.73,0,1.24.42,1.24,1.35,0,3.84-8.2,12.35-16.08,18.16m.83,5.6c12.76-8.71,23.97-19.09,23.97-26.77,0-3.53-2.49-6.33-6.23-6.33-10.69,0-26.25,16.29-26.25,30.61,0,7.37,5.29,12.55,12.86,12.55,10.38,0,20.44-7.78,25.94-15.25,1.66-2.28,2.7-3.84,2.7-4.98,0-1.66-.73-3.01-2.08-3.01-.83,0-1.66.83-3.11,2.59-6.33,7.68-11.52,13.59-21.06,13.59-3.53,0-5.71-1.14-6.74-3.01m-31.02-40.26c1.56-.73,9.55-3.63,14.53-3.63,3.11,0,4.36.93,4.36,2.18,0,5.08-15.15,14.84-24.17,14.84-1.24,0-2.28-.1-3.11-.52l8.4-12.86Zm-14.73,23.03c3.22-.93,10.17-2.59,15.98-2.59,7.16,0,8.82,2.18,8.82,4.88,0,5.81-12.45,15.04-31.33,15.04-1.14,0-2.28-.1-2.39-.93,1.14-3.11,4.67-9.44,8.92-16.39m-13.07,23.24c.83,2.59,2.08,4.36,6.02,4.36,9.75,0,41.29-7.06,41.29-22,0-5.19-3.11-10.17-10.58-12.03,11.21-3.11,19.82-10.38,19.82-16.08,0-1.35-.62-3.94-2.9-7.89-2.49-4.57-4.98-6.85-8.92-6.85-4.77,0-10.38,1.24-16.7,3.63,0,0-.62-.1-1.45-.1-.62,0-1.35.1-1.76.31-1.14.62-5.5,6.74-12.76,17.64-9.44,14.21-17.53,29.67-17.53,32.16,0,2.28,3.01,5.29,5.5,6.85m-28.43-40.98c3.53,0,7.16-3.42,7.16-7.37,0-3.11-1.87-4.46-4.05-4.46-3.53,0-7.06,2.9-7.06,6.95,0,2.8,1.56,4.88,3.94,4.88m.73,32.99c3.84-4.56,5.29-6.85,5.29-8.2,0-1.66-.73-3.01-2.07-3.01-1.66,0-2.8,2.59-7.99,8.2-4.36,4.77-7.68,6.43-10.06,6.43-.93,0-2.07-.52-2.07-3.32,0-6.22,6.43-14.84,10.38-19.71,1.76-2.18,2.59-3.01,2.59-3.74,0-1.87-1.76-4.67-4.05-4.67-3.11,0-3.74,2.59-9.13,10.06-4.88,6.85-6.74,9.65-6.74,10.89,0,.52.31.52,1.25.52-1.25,3.01-2.08,5.6-2.08,9.23,0,4.77,2.8,9.34,8.09,9.34s11.1-5.6,16.6-12.04m-62.87,3.53c-1.04,0-1.87-.73-1.87-1.87,0-6.43,14.01-21.06,20.02-21.06,1.56,0,2.18.73,2.18,2.18,0,5.5-13.9,20.75-20.34,20.75m15.05-1.14c0,6.54,3.74,9.65,7.99,9.65,6.64,0,14.21-9.34,16.18-11.72,3.42-4.05,5.6-6.85,5.6-8.4,0-2.07-1.04-3.11-1.97-3.11-1.56,0-3.22,2.59-6.02,5.81-5.81,6.64-9.13,8.82-11.93,8.82-1.97,0-2.39-1.14-2.39-1.97,0-6.64,20.23-34.34,25.94-41.81,2.59-3.32,3.32-3.94,3.32-4.67,0-3.01-2.8-5.5-5.81-5.5-2.28,0-3.42,2.49-7.06,8.2-4.36,6.64-9.23,15.04-12.86,20.85-1.97-4.25-4.46-6.02-7.89-6.02-9.44,0-28.01,18.47-28.01,30.5,0,4.36,3.94,9.03,8.92,9.03,7.16,0,13.49-8.2,15.98-10.79v1.14Zm-41.29-15.46c-1.76,4.36-4.67,11.83-4.67,16.5,0,4.05,2.18,8.92,7.99,8.92,4.67,0,9.96-3.94,16.81-12.24,3.11-3.63,5.4-6.74,5.4-8.2,0-2.28-1.04-3.11-2.18-3.11s-1.97,1.25-5.81,5.91c-4.36,5.29-9.13,8.92-12.66,8.92-1.45,0-2.07-.93-2.07-2.59,0-6.43,5.5-15.04,10.17-21.27,2.28-3.11,3.74-4.67,3.74-5.6,0-1.45-1.76-5.5-4.25-5.5-2.9,0-18.37,15.36-23.76,21.37,2.8-6.85,7.26-11.83,7.26-13.9s-1.97-4.57-4.46-4.57c-.42,0-1.25.1-1.56.42-.73.42-1.24,2.08-5.29,8.4-5.19,8.51-7.37,10.69-7.37,12.14,0,1.14.73,1.14,1.14,1.14-3.32,5.19-7.16,11.52-7.16,13.59,0,2.18,3.01,4.77,5.91,4.77,2.07,0,1.87-1.45,4.36-4.77,5.29-6.95,13.49-17.02,18.47-20.34m-34.65-1.04c-1.04-1.04-1.56-2.49-1.56-4.05,0-4.98.93-7.99,2.59-7.99.62,0,1.24.83,1.24,2.8,0,2.39-.83,5.71-2.28,9.23m-2.7,5.6c-3.32,6.02-8.09,11.31-12.45,11.31-2.7,0-4.25-1.87-4.25-4.25,0-4.88,5.71-14.21,11.62-19.92-.21,1.04-.31,2.18-.31,3.01,0,4.88,2.28,7.99,5.4,9.86m9.65-2.7c1.76-4.56,2.8-9.03,2.8-12.45,0-4.46-1.24-6.54-4.46-8.4-2.18-2.18-3.42-2.49-4.77-2.49-2.07,0-3.94,1.04-6.12,2.39-.21,0-.73-.1-.93-.1-.62,0-1.14.31-1.76.73-8.92,7.06-19.51,18.36-19.51,30.09,0,6.74,3.94,13.49,10.58,13.49,8.92,0,16.91-8.61,21.79-18.05,1.56.21,3.01.31,4.25.31,8.3,0,14.53-5.81,14.53-7.99,0-1.14-1.35-2.9-2.18-2.9-1.14,0-3.11,5.39-12.35,5.39h-1.87Zm-58.83-27.08c1.56-.73,9.54-3.63,14.53-3.63,3.11,0,4.36.93,4.36,2.18,0,5.08-15.15,14.84-24.17,14.84-1.25,0-2.28-.1-3.11-.52l8.4-12.86Zm-14.73,23.03c3.22-.93,10.17-2.59,15.98-2.59,7.16,0,8.82,2.18,8.82,4.88,0,5.81-12.45,15.04-31.33,15.04-1.14,0-2.28-.1-2.39-.93,1.14-3.11,4.67-9.44,8.92-16.39m-13.07,23.24c.83,2.59,2.07,4.36,6.02,4.36,9.75,0,41.29-7.06,41.29-22,0-5.19-3.11-10.17-10.58-12.03,11.21-3.11,19.82-10.38,19.82-16.08,0-1.35-.62-3.94-2.9-7.89-2.49-4.57-4.98-6.85-8.92-6.85-4.77,0-10.38,1.24-16.7,3.63,0,0-.62-.1-1.45-.1-.62,0-1.35.1-1.76.31-1.14.62-5.5,6.74-12.76,17.64-9.44,14.21-17.53,29.67-17.53,32.16,0,2.28,3.01,5.29,5.5,6.85"/>
  <path class="cls-1" d="m414.17,138.73h-3.59v-10.07h4.24c3.59,0,6.34,1.3,6.34,5.17s-2.94,4.89-6.99,4.89m-.7-23.07c4.19,0,6.43.93,6.43,4.19,0,3.03-2.19,4.52-5.55,4.52h-3.78v-8.72h2.89Zm6.76,10.62c3.08-.65,5.96-2.94,5.96-6.94,0-5.87-5.03-8.2-13.33-8.2h-8.44v32.2h9.69c7.83,0,13.47-2.19,13.47-9.27,0-5.36-3.68-7.08-7.36-7.78m-25.64-15.14h-6.2v21.34c0,4.52-1.82,6.76-5.82,6.76s-5.78-2.24-5.78-6.76v-21.34h-6.15v21.67c0,6.62,4.01,11.23,11.93,11.23s12.02-4.75,12.02-11.23v-21.67Zm-42.51,0h-6.15v32.2h18.36l.7-5.03h-12.91v-27.17Zm-23.08-.7c-7.92,0-14.07,5.92-14.07,16.73s5.83,16.87,14.17,16.87c4.38,0,7.74-1.91,9.69-3.91l-2.89-3.64c-1.86,1.4-3.77,2.61-6.57,2.61-4.57,0-7.92-3.45-7.92-11.93s3.45-11.98,7.92-11.98c2.19,0,4.1.79,5.96,2.28l3.12-3.64c-2.66-2.19-5.31-3.4-9.41-3.4m-37.01,32.9h6.15v-13.42h9.93v-4.57h-9.93v-9.65h11.42l.65-4.57h-18.22v32.2Zm-25.08-27.73h3.31c4.47,0,6.48,1.49,6.48,4.99,0,3.87-2.14,5.41-5.96,5.41h-3.82v-10.39Zm11.05,27.73h7.08l-8.43-14.03c4.38-1.72,6.52-4.33,6.52-8.71,0-6.38-4.33-9.46-12.77-9.46h-9.6v32.2h6.15v-12.91h3.92l7.13,12.91Zm-27.04-32.2h-6.2v21.34c0,4.52-1.82,6.76-5.82,6.76s-5.78-2.24-5.78-6.76v-21.34h-6.15v21.67c0,6.62,4.01,11.23,11.93,11.23s12.02-4.75,12.02-11.23v-21.67Zm-43.07-.7c-6.34,0-10.95,3.54-10.95,8.9,0,4.89,2.94,7.6,9.69,9.69,5.03,1.54,6.38,2.75,6.38,5.45,0,3.12-2.47,4.8-5.92,4.8s-5.92-1.21-8.29-3.22l-3.17,3.54c2.66,2.61,6.48,4.43,11.6,4.43,7.69,0,12.21-4.1,12.21-9.88s-3.91-8.39-9.55-10.16c-5.36-1.68-6.62-2.7-6.62-5.03,0-2.52,2.1-3.82,4.99-3.82,2.66,0,4.89.84,7.22,2.75l3.03-3.5c-2.8-2.56-5.92-3.96-10.62-3.96"/>
</svg>